# xmcd CD database file
#
# Track frame offsets:
#	150
#	3085
#	22410
#	43422
#	61425
#	76885
#	95957
#	116502
#	120050
#	143315
#	168460
#	195490
#
# Disc length: 3459 seconds
#
# Revision: 0
# Processed by: cddbd v1.5PL3 Copyright (c) Steve Scherf et al.
# Submitted via: CDex 1.51
#
DISCID=970d810c
DTITLE=石川優子 - HELLO,HOLY NIGHT
DYEAR=1900
DGENRE=JPop
TTITLE0=プロローグPrologue
TTITLE1=サンタをひとりじめ
TTITLE2=微熱でDancing
TTITLE3=未来へスカイダイビング
TTITLE4=Joking Drive
TTITLE5=雑踏
TTITLE6=Cristmas Day
TTITLE7=エピローグ Epilogue
TTITLE8=星空のダンス
TTITLE9=恋人たちの聖夜
TTITLE10=Just Fall In Love
TTITLE11=5分でサンセット〜春でも夏でもない季節〜涙のロートレック
EXTD=
EXTT0=
EXTT1=
EXTT2=
EXTT3=
EXTT4=
EXTT5=
EXTT6=
EXTT7=
EXTT8=
EXTT9=
EXTT10=
EXTT11=
PLAYORDER=
